<?xml version="1.0" encoding="UTF-8"?>
<svg width="560px" height="560px" viewBox="0 0 560 560" version="1.1" xmlns="http://www.w3.org/2000/svg" xmlns:xlink="http://www.w3.org/1999/xlink">
    <!-- Generator: Sketch 47 (45396) - http://www.bohemiancoding.com/sketch -->
    <title>Hubspot Localizer</title>
    <desc>Created with Sketch.</desc>
    <defs></defs>
    <g id="Page-1" stroke="none" stroke-width="1" fill="none" fill-rule="evenodd">
        <g id="Hubspot-Localizer">
            <polygon id="background" fill="#217BB9" fill-rule="nonzero" points="0 0 562 0 562 560 0 560"></polygon>
            <g id="Translate" transform="translate(81.000000, 316.000000)" fill-rule="nonzero" fill="#FFFFFF">
                <path d="M24.172,56.6135522 L15.5152542,56.6135522 L15.5152542,11.2016119 L0.0046779661,11.2016119 L0.0046779661,3.79808955 L39.7101017,3.79808955 L39.7101017,11.2016119 L24.172,11.2016119 L24.172,56.6135522 Z M65.3225085,15.9354627 C66.7394835,15.9081221 68.1554662,16.0280292 69.547661,16.2932537 L68.7218983,24.2059403 C67.4912358,23.9115485 66.2300682,23.7637356 64.964678,23.7655821 C61.862901,23.6461233 58.8579587,24.857983 56.7070508,27.095791 C54.5498865,29.4386962 53.4113338,32.5421478 53.5416271,35.7240597 L53.5416271,56.599791 L45.0500339,56.599791 L45.0500339,16.6923284 L51.6974237,16.6923284 L52.8122034,23.7380597 L53.2526102,23.7380597 C54.4894925,21.4502954 56.2716435,19.5029075 58.4411525,18.0684478 C60.4729108,16.691422 62.8680277,15.9490176 65.3225085,15.9354627 L65.3225085,15.9354627 Z M100.100881,56.6135522 L98.4080678,51.1090746 L98.0915254,51.1090746 C96.5709969,53.2018553 94.5758906,54.9043469 92.2698983,56.0768657 C89.8888303,57.0557562 87.3289378,57.5245493 84.7554576,57.4529851 C81.3907302,57.6535271 78.0840186,56.5101647 75.5619661,54.2741493 C73.2465744,51.8706435 72.0479769,48.6048255 72.2589153,45.2743284 C72.0478783,41.5803489 73.7867328,38.0455903 76.8418983,35.958 C79.8972203,33.8662985 84.5581921,32.7241194 90.8248136,32.5314627 L97.7061695,32.3112836 L97.7061695,30.1782985 C97.8666304,28.1112085 97.2260467,26.0615667 95.9170169,24.4536418 C94.4252465,23.0838807 92.4310577,22.3959614 90.4119322,22.554597 C88.4131057,22.5484543 86.4256137,22.8549029 84.5214915,23.4628358 C82.6694514,24.0549689 80.8580893,24.767482 79.0989831,25.5958209 L76.3464407,19.5271343 C78.5973899,18.3631135 80.9888079,17.4936028 83.4617627,16.9400299 C85.8524274,16.3737479 88.2992414,16.0783161 90.756,16.0593134 C95.8390282,16.0593134 99.6742373,17.164796 102.261627,19.3757612 C104.849017,21.5867264 106.142712,25.0683085 106.142712,29.8205075 L106.142712,56.737403 L100.100881,56.6135522 Z M87.4529492,50.8338507 C90.1670787,50.9622466 92.8255432,50.0350922 94.8710508,48.2467463 C96.7892911,46.3435527 97.7926156,43.7051002 97.6235932,41.0083582 L97.6235932,37.5405373 L92.4901017,37.7607164 C88.4897401,37.9075025 85.5812203,38.5772139 83.7645424,39.7698507 C81.9178932,40.9709627 80.8650061,43.0765048 81.012,45.2743284 C80.9182038,46.8144686 81.4953406,48.3198768 82.5947119,49.4026866 C83.9732765,50.4799424 85.7104632,50.9916917 87.4529492,50.8338507 L87.4529492,50.8338507 Z M151.311932,56.6135522 L142.792814,56.6135522 L142.792814,32.0498209 C142.974194,29.6117474 142.318819,27.1846991 140.934847,25.1692239 C139.422684,23.5418593 137.243697,22.7038799 135.030644,22.8986269 C131.443164,22.8986269 128.819073,23.9582388 127.158373,26.0774627 C125.497672,28.1966866 124.667322,31.7470746 124.667322,36.7286269 L124.667322,56.6273134 L116.175729,56.6273134 L116.175729,16.7198507 L122.864407,16.7198507 L124.061763,21.9628657 L124.488407,21.9628657 C125.734145,20.0264384 127.518343,18.495928 129.621898,17.5592836 C131.931398,16.5039599 134.445902,15.9729174 136.984949,16.0042687 C146.572972,16.0042687 151.366983,20.8803184 151.366983,30.6324179 L151.311932,56.6135522 Z M188.127186,45.2330448 C188.307148,48.7514218 186.703459,52.1239694 183.860746,54.2053433 C181.016452,56.2878706 176.947277,57.3291343 171.65322,57.3291343 C167.248831,57.5104501 162.86132,56.6819986 158.826373,54.9071642 L158.826373,47.5724478 C162.911647,49.5916095 167.386705,50.6996861 171.942237,50.8200896 C177.172068,50.8200896 179.786983,49.2421393 179.786983,46.0862388 C179.819937,45.1642169 179.511166,44.2625081 178.919932,43.5541791 C178.098742,42.6970998 177.134757,41.989324 176.071051,41.4624776 C174.288399,40.5290401 172.449883,39.7063947 170.565966,38.9992239 C165.978395,37.2194428 162.863435,35.4396617 161.221085,33.6598806 C159.56178,31.7605783 158.690433,29.2994179 158.785085,26.7792836 C158.666938,23.5827788 160.234094,20.558501 162.913898,18.8115522 C166.29475,16.7530452 170.219122,15.7648649 174.171797,15.9767463 C178.770574,15.953619 183.319945,16.9253588 187.507864,18.8253134 L184.755322,25.2242687 C181.333394,23.6526096 177.643548,22.7465953 173.88278,22.554597 C169.405311,22.554597 167.166576,23.829801 167.166576,26.380209 C167.182712,27.6649285 167.838211,28.8570833 168.914441,29.5590448 C171.322388,30.9885591 173.879001,32.1513669 176.538983,33.0268657 C179.059709,33.9187654 181.470097,35.0961238 183.723119,36.5359701 C185.104459,37.4746398 186.24161,38.7296136 187.039932,40.1964478 C187.810746,41.7604791 188.184175,43.4903544 188.127186,45.2330448 L188.127186,45.2330448 Z M203.940542,56.6135522 L195.448949,56.6135522 L195.448949,0.399074627 L203.940542,0.399074627 L203.940542,56.6135522 Z M239.228136,56.6135522 L237.535322,51.1090746 L237.246305,51.1090746 C235.725777,53.2018553 233.73067,54.9043469 231.424678,56.0768657 C229.04361,57.0557562 226.483718,57.5245493 223.910237,57.4529851 C220.54551,57.6535271 217.238798,56.5101647 214.716746,54.2741493 C212.401354,51.8706435 211.202757,48.6048255 211.413695,45.2743284 C211.202658,41.5803489 212.941512,38.0455903 215.996678,35.958 C219.052,33.8662985 223.712972,32.7241194 229.979593,32.5314627 L236.860949,32.3112836 L236.860949,30.1782985 C237.02141,28.1112085 236.380826,26.0615667 235.071797,24.4536418 C233.580026,23.0838807 231.585837,22.3959614 229.566712,22.554597 C227.567885,22.5484543 225.580393,22.8549029 223.676271,23.4628358 C221.824059,24.0544864 220.012666,24.7670118 218.253763,25.5958209 L215.50122,19.5271343 C217.752353,18.363533 220.143716,17.4940425 222.616542,16.9400299 C225.007228,16.3738628 227.454029,16.0784326 229.91078,16.0593134 C234.993808,16.0593134 238.829017,17.164796 241.416407,19.3757612 C244.003797,21.5867264 245.297492,25.0683085 245.297492,29.8205075 L245.297492,56.737403 L239.228136,56.6135522 Z M226.580203,50.8338507 C229.294333,50.9622466 231.952797,50.0350922 233.998305,48.2467463 C235.916545,46.3435527 236.91987,43.7051002 236.750847,41.0083582 L236.750847,37.5405373 L231.617356,37.7607164 C227.616994,37.9075025 224.708475,38.5772139 222.891797,39.7698507 C221.045147,40.9709627 219.99226,43.0765048 220.139254,45.2743284 C220.045458,46.8144686 220.622595,48.3198768 221.721966,49.4026866 C223.100531,50.4799424 224.837717,50.9916917 226.580203,50.8338507 L226.580203,50.8338507 Z M270.125424,50.4622985 C272.232157,50.4552039 274.325392,50.1257066 276.332407,49.4852537 L276.332407,55.884209 C275.163101,56.361283 273.944557,56.7074222 272.699051,56.9162985 C271.178253,57.1959098 269.634828,57.3341117 268.088542,57.3291343 C260.041944,57.3291343 256.018644,53.0906866 256.018644,44.613791 L256.018644,23.0912836 L250.513559,23.0912836 L250.513559,19.2656716 L256.362712,16.1556418 L259.252881,7.70626866 L264.620339,7.70626866 L264.620339,16.596 L276.002102,16.596 L276.002102,23.0224776 L264.620339,23.0224776 L264.620339,44.4073731 C264.484397,46.0649027 265.042617,47.7044931 266.161763,48.934806 C267.230357,49.9458521 268.654614,50.4947239 270.125424,50.4622985 L270.125424,50.4622985 Z M299.976746,57.3291343 C293.765175,57.3291343 288.906938,55.4943085 285.402034,51.8246567 C281.89713,48.155005 280.144678,43.1642786 280.144678,36.8524776 C280.144678,30.3296716 281.768678,25.2013333 285.016678,21.4674627 C288.264678,17.733592 292.732972,15.8666567 298.421559,15.8666567 C303.697266,15.8666567 307.86278,17.4675423 310.918102,20.6693134 C313.973424,23.8710846 315.501085,28.2792537 315.501085,33.8938209 L315.501085,38.5313433 L288.884,38.5313433 C288.778023,41.7998399 289.897158,44.9900034 292.021898,47.4761194 C294.23792,49.645363 297.266117,50.7795625 300.362102,50.5999104 C302.577421,50.6131692 304.787691,50.3870914 306.954441,49.9256119 C309.206644,49.4077054 311.401288,48.6654814 313.505492,47.7100597 L313.505492,54.5906567 C311.506195,55.5518287 309.3927,56.2547079 307.215932,56.6823582 C304.828571,57.1250226 302.404777,57.3415734 299.976746,57.3291343 L299.976746,57.3291343 Z M298.421559,22.3619403 C295.994952,22.2537097 293.637224,23.1846843 291.939322,24.9215224 C290.158535,27.0149253 289.135478,29.6474306 289.03539,32.3938507 L307.174644,32.3938507 C307.332122,29.6859833 306.484271,27.015302 304.793695,24.894 C303.144467,23.1554612 300.814384,22.229569 298.421559,22.3619403 L298.421559,22.3619403 Z M319.671186,54.3567164 C319.618746,53.6172717 319.866846,52.8879403 320.359322,52.3338209 C320.894412,51.8358615 321.611895,51.581781 322.341153,51.632 C323.08427,51.5777701 323.815233,51.8430905 324.350508,52.3613433 C324.835976,52.9085981 325.083584,53.6265828 325.038644,54.3567164 C325.081173,55.0990186 324.834549,55.8289463 324.350508,56.3933731 C323.210604,57.3861832 321.512989,57.3861832 320.373085,56.3933731 C319.885346,55.8303121 319.633891,55.1006815 319.671186,54.3567164 L319.671186,54.3567164 Z M337.562712,56.9713433 C334.991503,57.148282 332.47329,56.1813948 330.681356,54.329194 C327.500956,49.6962075 327.544899,43.5723416 330.791458,38.9854627 C332.652736,37.0724692 335.256493,36.0672687 337.920542,36.2332239 C339.878025,36.2021182 341.818437,36.6014325 343.604542,37.4029254 L342.32461,40.8157015 C340.917132,40.2045826 339.411592,39.850377 337.879254,39.7698507 C334.420226,39.7698507 332.690712,42.0633831 332.690712,46.6504478 C332.565144,48.4294221 333.019009,50.2012309 333.984407,51.700806 C334.8925,52.8508865 336.306434,53.483231 337.769153,53.3934328 C339.647218,53.4065657 341.496582,52.9324221 343.13661,52.0173134 L343.13661,55.7190746 C342.384584,56.1649264 341.567223,56.4899774 340.714373,56.6823582 C339.677377,56.8924665 338.62063,56.9893627 337.562712,56.9713433 L337.562712,56.9713433 Z M364.620203,46.5816418 C364.788886,49.3535705 363.892964,52.0853374 362.11539,54.2191045 C360.297626,56.111783 357.744254,57.1169369 355.123932,56.9713433 C353.3885,57.0033194 351.676664,56.5658983 350.169356,55.7053134 C348.728681,54.8531879 347.577772,53.5873273 346.866305,52.0723582 C346.063856,50.3504643 345.668301,48.4670759 345.710237,46.5678806 C345.544957,43.8154878 346.43586,41.1037001 348.201288,38.9854627 C350.031795,37.0862236 352.600505,36.0809682 355.234034,36.2332239 C357.821309,36.0922127 360.339105,37.0992202 362.11539,38.9854627 C363.894107,41.1024073 364.790893,43.8220291 364.620203,46.5816418 L364.620203,46.5816418 Z M350.073017,46.5816418 C350.073017,51.1687065 351.775006,53.4622388 355.178983,53.4622388 C358.58296,53.4622388 360.271186,51.1687065 360.243661,46.5816418 C360.243661,41.9945771 358.54626,39.7010448 355.151458,39.7010448 C353.636363,39.5737476 352.164784,40.2468426 351.270373,41.4762388 C350.378054,43.0229555 349.966051,44.8001206 350.08678,46.5816418 L350.073017,46.5816418 Z M385.415661,56.6135522 L381.14922,56.6135522 L381.14922,44.2284776 C381.238665,43.0225755 380.934418,41.8202058 380.282169,40.8019403 C379.605212,39.9972636 378.576686,39.5756145 377.529627,39.6735224 C376.134799,39.5602231 374.777515,40.1610917 373.923797,41.2698209 C373.024115,42.8927849 372.626552,44.7462789 372.781492,46.595403 L372.781492,56.5447463 L368.542576,56.5447463 L368.542576,36.6322985 L371.969492,36.6322985 L372.561288,39.2469254 L372.781492,39.2469254 C373.343305,38.286466 374.183034,37.5187982 375.189966,37.0451343 C376.275242,36.52201 377.467243,36.2581969 378.671932,36.2745075 C381.745605,36.2745075 383.782486,37.3203582 384.782576,39.4120597 L385.071593,39.4120597 C385.665998,38.4209183 386.529919,37.6191346 387.562644,37.1001791 C388.707366,36.5311057 389.972931,36.2478015 391.251051,36.2745075 C393.167751,36.1003812 395.067062,36.756799 396.467119,38.0772239 C397.675984,39.645921 398.259584,41.6073875 398.104881,43.5817015 L398.104881,56.599791 L393.865966,56.599791 L393.865966,44.2147164 C393.957461,43.0067415 393.647858,41.8023246 392.985153,40.7881791 C392.306769,39.9854586 391.279311,39.5642472 390.23261,39.6597612 C388.81182,39.5443236 387.429064,40.155362 386.557966,41.2835821 C385.688773,42.7072166 385.289167,44.3680438 385.415661,46.031194 L385.415661,56.6135522 Z" id="Shape"></path>
            </g>
            <text id="for" fill="#FFFFFF" font-family="OpenSans-ExtraBold, Open Sans" font-size="16.92" font-weight="600">
                <tspan x="84.3762712" y="427.359522">for</tspan>
            </text>
            <g id="Hubspot-Logo" transform="translate(128.000000, 398.000000)" fill-rule="nonzero">
                <path d="M0.427118644,19.6117313 L12.6208814,19.6117313 L12.6208814,46.68 L38.3296271,46.68 L38.3296271,19.6117313 L50.5371525,19.6117313 L50.5371525,86.0782985 L38.3296271,86.0782985 L38.3296271,58.4320597 L12.6208814,58.4320597 L12.6208814,86.0782985 L0.427118644,86.0782985 L0.427118644,19.6117313 Z M89.1415593,64.4319403 C88.9410203,69.8616559 84.4806263,74.159896 79.0466102,74.159896 C73.6125941,74.159896 69.1522001,69.8616559 68.951661,64.4319403 L68.951661,35.8086567 L57.3909831,35.8086567 L57.3909831,64.4319403 C57.3909831,76.3906939 67.0865376,86.0851791 79.0466102,86.0851791 C91.0066828,86.0851791 100.702237,76.3906939 100.702237,64.4319403 L100.702237,35.8086567 L89.1415593,35.8086567 L89.1415593,64.4319403 L89.1415593,64.4319403 Z M132.962034,36.1526866 C127.848176,35.94364 122.892545,37.9497469 119.364475,41.6571642 L119.364475,19.6392537 L107.776271,19.6392537 L107.776271,60.3999104 C107.776271,75.6610746 118.786441,86.1058209 131.172881,86.1058209 C144.935593,86.1058209 157.019254,75.4684179 157.019254,61.1430149 C157.019254,46.8176119 145.88522,36.180209 132.934508,36.180209 L132.962034,36.1526866 Z M133.251051,75.3583284 C125.560166,75.1192085 119.449357,68.8161267 119.449357,61.1223731 C119.449357,53.4286196 125.560166,47.1255378 133.251051,46.8864179 C139.912203,46.8864179 145.926508,53.4505075 145.926508,61.1292537 C145.926508,68.808 139.912203,75.3445672 133.264814,75.3445672 L133.251051,75.3583284 Z M176.589831,39.0700597 C176.589831,33.2353134 180.470915,31.3913134 184.723593,31.3913134 C188.150508,31.3913134 192.678441,33.9784179 195.637424,37.1297313 L203.220678,28.2537612 C199.435932,23.1621194 191.756339,19.6530149 185.46678,19.6530149 C172.887661,19.6530149 163.831797,26.960209 163.831797,39.0700597 C163.831797,61.5420896 191.481085,54.413791 191.481085,66.9915224 C191.481085,70.8721791 187.696339,74.2987164 183.347322,74.2987164 C176.465966,74.2987164 174.277695,70.9685075 171.139797,67.4181194 L162.717017,76.115194 C168.084475,82.6792836 174.745627,86.0094925 182.686712,86.0094925 C194.618983,86.0094925 204.239119,78.6059701 204.239119,67.0465672 C204.239119,42.0837612 176.589831,49.8450746 176.589831,39.0287761 L176.589831,39.0700597 Z M234.764814,35.4508657 C222.378373,35.4508657 211.368203,45.8956119 211.368203,61.1567761 L211.368203,102 L222.970169,102 L222.970169,79.9820896 C226.49824,83.6895068 231.453871,85.6956138 236.567729,85.4865672 C250.094304,85.178307 260.819068,73.9807214 260.542373,60.4549552 C260.542373,46.1295522 248.472475,35.4921493 234.682237,35.4921493 L234.764814,35.4508657 Z M236.82922,74.6565075 C228.962252,74.656507 222.584814,68.2797723 222.584814,60.4136716 C222.584814,52.547571 228.962252,46.1708363 236.82922,46.1708358 C243.490373,46.1708358 249.504678,52.7349254 249.504678,60.4136716 C249.504678,68.0924179 243.435322,74.697791 236.774169,74.697791 L236.82922,74.6565075 Z M345.981288,75.3032836 C339.099932,75.3032836 337.200678,72.3446269 337.200678,67.817194 L337.200678,47.7946567 L347.839254,47.7946567 L347.839254,37.6251343 L337.200678,37.6251343 L337.200678,24.2217313 L325.461085,29.4922687 L325.461085,70.3492537 C325.461085,80.794 332.672746,86.0645373 342.568136,86.0645373 C344.117994,86.0919332 345.666811,85.9674885 347.192407,85.6929851 L350,75.1656716 C348.706305,75.2482388 347.247458,75.3445672 345.871186,75.3445672 L345.981288,75.3032836 Z" id="Shape" fill="#FFFFFF"></path>
                <path d="M315.345492,48.3313433 C313.107683,44.515797 309.915735,41.347913 306.083186,39.1388657 C303.213017,37.4397442 300.030338,36.3352893 296.724542,35.8912239 L296.724542,23.7400896 C300.099771,22.3261674 302.278144,19.0045148 302.229627,15.3457612 C302.229627,10.2498958 298.098156,6.1188806 293.001729,6.1188806 C287.905301,6.1188806 283.773831,10.2498958 283.773831,15.3457612 C283.67853,18.9898456 285.824621,22.3205622 289.182576,23.7400896 L289.182576,35.9462687 C286.347135,36.3575246 283.596219,37.2217373 281.035051,38.5058507 L248.293559,13.6531343 C248.562889,12.7599791 248.706483,11.8336659 248.720203,10.9008955 C248.759364,6.20098587 245.6178,2.06818918 241.078395,0.847928472 C236.538991,-0.372332236 231.748341,1.62816508 229.425209,5.71410873 C227.102078,9.80005238 227.833259,14.9393859 231.203795,18.2154618 C234.574332,21.4915377 239.73287,22.0768617 243.751864,19.6392537 L245.885085,21.2630746 L275.268475,42.427791 C273.686647,43.8656128 272.298717,45.5031896 271.139661,47.2992537 C268.728529,50.9338745 267.414643,55.1856181 267.354915,59.5467164 L267.354915,60.4824776 C267.366592,63.5037374 267.911706,66.4992045 268.965153,69.3309254 C269.863285,71.7276844 271.151398,73.9595483 272.777424,75.9362985 L263.019661,85.7067463 C259.580285,84.4628339 255.737118,85.7513044 253.74288,88.8169047 C251.748641,91.8825049 252.12868,95.917655 254.660231,98.5571011 C257.191783,101.196547 261.207953,101.744972 264.354613,99.8809104 C267.501273,98.0168484 268.94949,94.2313545 267.850373,90.7433433 L277.924678,80.6563881 C279.331422,81.6180185 280.829643,82.4384919 282.397559,83.1058806 C285.703795,84.5558136 289.274488,85.3054826 292.884746,85.3076716 L293.572881,85.3076716 C302.254226,85.3121135 310.321678,80.8312686 314.905085,73.4592836 C317.280522,69.7348967 318.541205,65.408938 318.538441,60.9916418 L318.538441,60.7577015 C318.583458,56.4166986 317.471904,52.1419644 315.317966,48.3726269 L315.345492,48.3313433 Z M303.027864,69.4822985 C300.275322,72.5235224 297.151186,74.3950448 293.586644,74.3950448 L292.994847,74.3950448 C290.908904,74.3626418 288.862732,73.8192611 287.035593,72.8125075 C284.912283,71.7060824 283.114392,70.0649163 281.819525,68.0511343 C280.432992,66.177247 279.67214,63.9142035 279.645017,61.5833731 L279.645017,60.8815522 C279.599504,58.6355878 280.125152,56.4148515 281.172678,54.4275522 C282.300158,52.2629577 283.975193,50.4315352 286.030915,49.1157313 C288.017983,47.7747932 290.363644,47.0649373 292.760881,47.0790746 L292.994847,47.0790746 C295.191774,47.0488599 297.363543,47.5492557 299.325695,48.5377612 C301.339153,49.6009736 303.048914,51.1590043 304.294034,53.065194 C305.529745,54.9782256 306.29386,57.1571275 306.523593,59.4228657 L306.523593,60.7989851 C306.482702,64.0277165 305.201496,67.1170535 302.945288,69.4272537 L303.027864,69.4822985 Z" id="Shape" fill="#F8761F"></path>
            </g>
            <g id="Globe" transform="translate(154.000000, 29.000000)" fill-rule="nonzero" fill="#FFFFFF">
                <path d="M125.970102,0.894477612 C56.3987356,0.894477612 1.42108547e-14,57.2869932 1.42108547e-14,126.850687 C1.42108547e-14,196.41438 56.3987356,252.806896 125.970102,252.806896 C195.541468,252.806896 251.940203,196.41438 251.940203,126.850687 C251.940203,57.2869932 195.541468,0.894477612 125.970102,0.894477612 L125.970102,0.894477612 Z M235.810305,83.544209 L203.15139,83.544209 C196.80678,50.6274328 183.044068,29.9443582 172.226576,18.2060597 C201.272192,30.6575949 224.155629,54.1724384 235.810305,83.544209 Z M198.912475,121.222358 C198.964983,134.990599 197.730142,148.733603 195.224068,162.272 L129.906237,162.272 L129.906237,91.4156119 L196.696678,91.4156119 C198.193652,101.280075 198.929833,111.245029 198.898712,121.222358 L198.912475,121.222358 Z M153.495525,241.67409 C145.764026,243.522187 137.865217,244.582622 129.92,244.839164 L129.92,170.143403 L193.586305,170.143403 C182.025627,219.491045 155.711322,239.995224 153.468,241.660328 L153.495525,241.67409 Z M102.573492,241.79794 C102.46339,241.715373 91.0541017,233.637552 79.7962034,214.853522 C71.6769325,200.959537 65.775169,185.884075 62.3037966,170.170925 L122.033966,170.170925 L122.033966,244.852925 C115.80972,244.655003 109.610905,243.964788 103.495593,242.788746 C103.235619,242.411829 102.909162,242.085408 102.532203,241.825463 L102.573492,241.79794 Z M56.9776271,121.222358 C56.9553005,111.253136 57.6174674,101.294141 58.9594576,91.4156119 L122.033966,91.4156119 L122.033966,162.272 L60.6522712,162.272 C58.1563671,148.732409 56.9261805,134.98993 56.9776271,121.222358 L56.9776271,121.222358 Z M96.5591864,12.5089254 C104.893608,10.3804595 113.436168,9.17143525 122.033966,8.90349254 L122.033966,83.5579701 L60.2118644,83.5579701 C68.8135593,35.8754328 92.2101695,15.8116119 96.5591864,12.481403 L96.5591864,12.5089254 Z M129.906237,83.5717313 L129.906237,8.87597015 C137.865783,9.13405517 145.77859,10.1991233 153.523051,12.054806 C153.894644,12.2749851 184.571729,31.1415821 195.251593,83.5304478 L129.906237,83.5717313 Z M80.0852203,18.0271642 C70.451322,29.7104179 58.0648814,50.4347761 52.3671186,83.5717313 L16.143661,83.5717313 C27.8451617,54.0777204 50.8665231,30.4939581 80.0714576,18.082209 L80.0852203,18.0271642 Z M13.3223051,91.3743284 L51.1697627,91.3743284 C49.9099111,101.259611 49.2892997,111.215877 49.3117966,121.181075 C49.2548888,134.939193 50.4108416,148.675555 52.7662373,162.230716 L13.3223051,162.230716 C6.07178666,139.16824 6.07178666,114.436805 13.3223051,91.3743284 L13.3223051,91.3743284 Z M16.0748475,170.102119 L54.3214237,170.102119 C62.1386441,205.729851 77.4152542,227.348687 87.7235254,238.509015 C55.019497,227.254531 28.8539747,202.292984 16.0748475,170.157164 L16.0748475,170.102119 Z M170.052068,236.293463 C180.264,224.610209 194.136814,203.52806 201.472339,170.102119 L235.741492,170.102119 C223.802459,200.22617 200.065015,224.159864 170.038305,236.348507 L170.052068,236.293463 Z M238.57661,162.230716 L203.110102,162.230716 C205.465781,148.675592 206.621736,134.939204 206.564542,121.181075 C206.579812,111.221519 205.876086,101.27385 204.458847,91.4156119 L238.590373,91.4156119 C245.840891,114.478088 245.840891,139.209524 238.590373,162.272 L238.57661,162.230716 Z" id="World" opacity="0.15"></path>
                <g id="Mark" transform="translate(58.803390, 83.567164)">
                    <polygon id="Shape" points="55.4271186 86.4936716 35.6501017 86.4936716 35.6501017 16.9858806 0.142305085 16.9858806 0.142305085 0.0733731343 90.8936271 0.0733731343 90.8936271 16.9996418 55.4271186 16.9996418"></polygon>
                    <path d="M135.512339,39.141403 L123.125898,39.141403 C124.915051,39.7606567 125.382983,39.8982687 125.878441,40.1046866 C125.672,40.5863284 125.121492,40.7927463 124.158102,40.7927463 C120.769423,51.0440491 115.099114,60.3931458 107.574034,68.1362388 C115.916695,74.9433483 125.763781,79.6611248 136.296814,81.8974328 C135.010879,83.2796058 133.905616,84.8194053 133.007525,86.4799104 C122.226559,83.8994339 112.218388,78.7803072 103.816814,71.5490149 C96.0546441,78.0580597 86.5721356,82.8607164 74.9151186,86.4111045 C74.1860735,84.9373509 73.2902191,83.5521619 72.2451525,82.2827463 C83.4617627,79.0626269 92.8066441,74.5214328 100.34861,68.3013731 C92.7062158,60.2170555 86.8867612,50.5878588 83.2828475,40.063403 L86.0353898,39.1964478 L72.8094237,39.1964478 L72.8094237,34.6827761 L101.518441,34.6827761 L101.518441,22.6279701 L107.615322,23.040806 C107.546508,23.5224478 107.133627,23.9077612 106.239051,24.0040896 L106.239051,34.6277313 L135.429763,34.6277313 L135.512339,39.141403 Z M88.0172203,39.141403 C91.3462662,48.8454928 96.8546492,57.6579335 104.119593,64.9023582 C111.229459,57.6408584 116.54536,48.8196974 119.643932,39.141403 L88.0172203,39.141403 Z" id="Shape"></path>
                </g>
            </g>
        </g>
    </g>
</svg>