<svg id="Layer_1" data-name="Layer 1" xmlns="http://www.w3.org/2000/svg" viewBox="0 0 455 524"><defs><style>.cls-1{fill:#f88129;}.cls-2{fill:#331e39;}</style></defs><title>Artboard 1</title><rect class="cls-1" width="455" height="524"/><polygon class="cls-2" points="123.9 56.97 229.46 38.86 320.81 51.87 334.24 92.47 266.51 82.53 144.79 108.6 138.75 203.13 166.47 417.56 128.62 413.85 116.91 203.58 123.9 56.97"/><polygon class="cls-2" points="299.95 114.77 339 114.49 341 417.79 313.63 414.63 310.02 261.56 299.95 114.77"/><path class="cls-2" d="M272.37,270.27l-1.72-151.79L178.16,129.8l-10.7,82.83,26.35,204.94,92.82-7.43Zm-57,110.14L205.08,223.28,207.93,161l33.44-3.72-2.08,48.48,9.51,170.89Z"/><polygon class="cls-2" points="342.62 440.99 339.66 475 133.91 478 126.2 431.48 167.45 437.72 342.62 440.99"/></svg>